<svg width="449" height="255" viewBox="0 0 449 255" fill="none" xmlns="http://www.w3.org/2000/svg">
<path d="M33.784 67.792C27.64 67.792 22.0507 66.512 17.016 63.952C12.0667 61.392 8.14133 57.68 5.24 52.816C2.33867 47.952 0.888 42.064 0.888 35.152V33.36C0.888 26.448 2.33867 20.56 5.24 15.696C8.14133 10.832 12.0667 7.12 17.016 4.56C22.0507 1.99999 27.64 0.719994 33.784 0.719994C39.8427 0.719994 45.048 1.78666 49.4 3.92C53.752 6.05333 57.2507 8.99733 59.896 12.752C62.6267 16.4213 64.4187 20.6027 65.272 25.296L49.656 28.624C49.3147 26.064 48.5467 23.76 47.352 21.712C46.1573 19.664 44.4507 18.0427 42.232 16.848C40.0987 15.6533 37.4107 15.056 34.168 15.056C30.9253 15.056 27.9813 15.7813 25.336 17.232C22.776 18.5973 20.728 20.688 19.192 23.504C17.7413 26.2347 17.016 29.6053 17.016 33.616V34.896C17.016 38.9067 17.7413 42.32 19.192 45.136C20.728 47.8667 22.776 49.9573 25.336 51.408C27.9813 52.7733 30.9253 53.456 34.168 53.456C39.032 53.456 42.7013 52.2187 45.176 49.744C47.736 47.184 49.3573 43.856 50.04 39.76L65.656 43.472C64.5467 47.9947 62.6267 52.1333 59.896 55.888C57.2507 59.5573 53.752 62.4587 49.4 64.592C45.048 66.7253 39.8427 67.792 33.784 67.792Z" fill="black"/>
<path d="M98.672 67.792C94.1493 67.792 90.096 67.024 86.512 65.488C82.928 63.8667 80.0693 61.5627 77.936 58.576C75.888 55.504 74.864 51.792 74.864 47.44C74.864 43.088 75.888 39.4613 77.936 36.56C80.0693 33.5733 82.9707 31.3547 86.64 29.904C90.3947 28.368 94.6613 27.6 99.44 27.6H116.848V24.016C116.848 21.0293 115.909 18.5973 114.032 16.72C112.155 14.7573 109.168 13.776 105.072 13.776C101.061 13.776 98.0747 14.7147 96.112 16.592C94.1493 18.384 92.8693 20.7307 92.272 23.632L77.424 18.64C78.448 15.3973 80.0693 12.4533 82.288 9.808C84.592 7.07733 87.6213 4.90133 91.376 3.28C95.216 1.57333 99.8667 0.719994 105.328 0.719994C113.691 0.719994 120.304 2.81066 125.168 6.992C130.032 11.1733 132.464 17.232 132.464 25.168V48.848C132.464 51.408 133.659 52.688 136.048 52.688H141.168V66H130.416C127.259 66 124.656 65.232 122.608 63.696C120.56 62.16 119.536 60.112 119.536 57.552V57.424H117.104C116.763 58.448 115.995 59.8133 114.8 61.52C113.605 63.1413 111.728 64.592 109.168 65.872C106.608 67.152 103.109 67.792 98.672 67.792ZM101.488 54.736C106.011 54.736 109.68 53.4987 112.496 51.024C115.397 48.464 116.848 45.0933 116.848 40.912V39.632H100.592C97.6053 39.632 95.2587 40.272 93.552 41.552C91.8453 42.832 90.992 44.624 90.992 46.928C90.992 49.232 91.888 51.1093 93.68 52.56C95.472 54.0107 98.0747 54.736 101.488 54.736Z" fill="black"/>
<path d="M152.96 66V2.512H168.832V9.68H171.136C172.075 7.12 173.611 5.24266 175.744 4.048C177.963 2.85333 180.523 2.256 183.424 2.256H191.104V16.592H183.168C179.072 16.592 175.701 17.7013 173.056 19.92C170.411 22.0533 169.088 25.3813 169.088 29.904V66H152.96Z" fill="black"/>
<path d="M203.71 66V2.512H219.582V9.424H221.886C222.995 7.29066 224.83 5.456 227.39 3.92C229.95 2.29867 233.321 1.488 237.502 1.488C242.025 1.488 245.651 2.384 248.382 4.176C251.113 5.88266 253.203 8.144 254.654 10.96H256.958C258.409 8.22933 260.457 5.968 263.102 4.176C265.747 2.384 269.502 1.488 274.366 1.488C278.291 1.488 281.833 2.34133 284.99 4.048C288.233 5.66933 290.793 8.18666 292.67 11.6C294.633 14.928 295.614 19.152 295.614 24.272V66H279.486V25.424C279.486 21.9253 278.59 19.3227 276.798 17.616C275.006 15.824 272.489 14.928 269.246 14.928C265.577 14.928 262.718 16.1227 260.67 18.512C258.707 20.816 257.726 24.144 257.726 28.496V66H241.598V25.424C241.598 21.9253 240.702 19.3227 238.91 17.616C237.118 15.824 234.601 14.928 231.358 14.928C227.689 14.928 224.83 16.1227 222.782 18.512C220.819 20.816 219.838 24.144 219.838 28.496V66H203.71Z" fill="black"/>
<path d="M341.888 67.792C335.573 67.792 329.984 66.4693 325.12 63.824C320.341 61.0933 316.587 57.296 313.856 52.432C311.211 47.4827 309.888 41.68 309.888 35.024V33.488C309.888 26.832 311.211 21.072 313.856 16.208C316.501 11.2587 320.213 7.46133 324.992 4.816C329.771 2.08533 335.317 0.719994 341.632 0.719994C347.861 0.719994 353.28 2.12799 357.888 4.944C362.496 7.67466 366.08 11.5147 368.64 16.464C371.2 21.328 372.48 27.0027 372.48 33.488V38.992H326.272C326.443 43.344 328.064 46.8853 331.136 49.616C334.208 52.3467 337.963 53.712 342.4 53.712C346.923 53.712 350.251 52.7307 352.384 50.768C354.517 48.8053 356.139 46.6293 357.248 44.24L370.432 51.152C369.237 53.3707 367.488 55.8027 365.184 58.448C362.965 61.008 359.979 63.2267 356.224 65.104C352.469 66.896 347.691 67.792 341.888 67.792ZM326.4 26.96H356.096C355.755 23.2907 354.261 20.3467 351.616 18.128C349.056 15.9093 345.685 14.8 341.504 14.8C337.152 14.8 333.696 15.9093 331.136 18.128C328.576 20.3467 326.997 23.2907 326.4 26.96Z" fill="black"/>
<path d="M386.835 66V2.512H402.707V10.832H405.011C406.035 8.61333 407.955 6.52266 410.771 4.56C413.587 2.512 417.854 1.488 423.571 1.488C428.52 1.488 432.83 2.64 436.499 4.944C440.254 7.16266 443.155 10.2773 445.203 14.288C447.251 18.2133 448.275 22.8213 448.275 28.112V66H432.147V29.392C432.147 24.6133 430.952 21.0293 428.563 18.64C426.259 16.2507 422.931 15.056 418.579 15.056C413.63 15.056 409.79 16.72 407.059 20.048C404.328 23.2907 402.963 27.856 402.963 33.744V66H386.835Z" fill="black"/>
<path d="M3.96 229V139.4H20.088V229H3.96Z" fill="black"/>
<path d="M68.168 230.792C61.8533 230.792 56.1787 229.512 51.144 226.952C46.1093 224.392 42.1413 220.68 39.24 215.816C36.3387 210.952 34.888 205.107 34.888 198.28V196.232C34.888 189.405 36.3387 183.56 39.24 178.696C42.1413 173.832 46.1093 170.12 51.144 167.56C56.1787 165 61.8533 163.72 68.168 163.72C74.4827 163.72 80.1573 165 85.192 167.56C90.2267 170.12 94.1947 173.832 97.096 178.696C99.9973 183.56 101.448 189.405 101.448 196.232V198.28C101.448 205.107 99.9973 210.952 97.096 215.816C94.1947 220.68 90.2267 224.392 85.192 226.952C80.1573 229.512 74.4827 230.792 68.168 230.792ZM68.168 216.456C73.1173 216.456 77.2133 214.877 80.456 211.72C83.6987 208.477 85.32 203.869 85.32 197.896V196.616C85.32 190.643 83.6987 186.077 80.456 182.92C77.2987 179.677 73.2027 178.056 68.168 178.056C63.2187 178.056 59.1227 179.677 55.88 182.92C52.6373 186.077 51.016 190.643 51.016 196.616V197.896C51.016 203.869 52.6373 208.477 55.88 211.72C59.1227 214.877 63.2187 216.456 68.168 216.456ZM58.44 158.344L67.912 139.4H86.088L72.52 158.344H58.44Z" fill="black"/>
<path d="M116.335 254.6V165.512H132.207V173.192H134.511C135.962 170.717 138.223 168.541 141.295 166.664C144.367 164.701 148.762 163.72 154.479 163.72C159.599 163.72 164.335 165 168.687 167.56C173.039 170.035 176.538 173.704 179.183 178.568C181.828 183.432 183.151 189.32 183.151 196.232V198.28C183.151 205.192 181.828 211.08 179.183 215.944C176.538 220.808 173.039 224.52 168.687 227.08C164.335 229.555 159.599 230.792 154.479 230.792C150.639 230.792 147.396 230.323 144.751 229.384C142.191 228.531 140.1 227.421 138.479 226.056C136.943 224.605 135.706 223.155 134.767 221.704H132.463V254.6H116.335ZM149.615 216.712C154.65 216.712 158.788 215.133 162.031 211.976C165.359 208.733 167.023 204.04 167.023 197.896V196.616C167.023 190.472 165.359 185.821 162.031 182.664C158.703 179.421 154.564 177.8 149.615 177.8C144.666 177.8 140.527 179.421 137.199 182.664C133.871 185.821 132.207 190.472 132.207 196.616V197.896C132.207 204.04 133.871 208.733 137.199 211.976C140.527 215.133 144.666 216.712 149.615 216.712Z" fill="black"/>
<path d="M226.888 230.792C220.573 230.792 214.984 229.469 210.12 226.824C205.341 224.093 201.587 220.296 198.856 215.432C196.211 210.483 194.888 204.68 194.888 198.024V196.488C194.888 189.832 196.211 184.072 198.856 179.208C201.501 174.259 205.213 170.461 209.992 167.816C214.771 165.085 220.317 163.72 226.632 163.72C232.861 163.72 238.28 165.128 242.888 167.944C247.496 170.675 251.08 174.515 253.64 179.464C256.2 184.328 257.48 190.003 257.48 196.488V201.992H211.272C211.443 206.344 213.064 209.885 216.136 212.616C219.208 215.347 222.963 216.712 227.4 216.712C231.923 216.712 235.251 215.731 237.384 213.768C239.517 211.805 241.139 209.629 242.248 207.24L255.432 214.152C254.237 216.371 252.488 218.803 250.184 221.448C247.965 224.008 244.979 226.227 241.224 228.104C237.469 229.896 232.691 230.792 226.888 230.792ZM211.4 189.96H241.096C240.755 186.291 239.261 183.347 236.616 181.128C234.056 178.909 230.685 177.8 226.504 177.8C222.152 177.8 218.696 178.909 216.136 181.128C213.576 183.347 211.997 186.291 211.4 189.96Z" fill="black"/>
<path d="M268.406 229V209.8L303.222 180.872V178.824H269.686V165.512H320.886V184.712L286.07 213.64V215.688H321.91V229H268.406Z" fill="black"/>
<path d="M347.072 230.792C343.659 230.792 340.757 229.683 338.368 227.464C336.064 225.16 334.912 222.216 334.912 218.632C334.912 215.048 336.064 212.147 338.368 209.928C340.757 207.624 343.659 206.472 347.072 206.472C350.571 206.472 353.472 207.624 355.776 209.928C358.08 212.147 359.232 215.048 359.232 218.632C359.232 222.216 358.08 225.16 355.776 227.464C353.472 229.683 350.571 230.792 347.072 230.792Z" fill="#1426C9"/>
</svg>
